<svg width="794" height="694" viewBox="0 0 794 694" fill="none" xmlns="http://www.w3.org/2000/svg" shape-rendering="crispEdges">
<g filter="url(#filter0_dii)">
<path fill-rule="evenodd" clip-rule="evenodd" shape-rendering="crispEdges" d="M20 85C20 46.8924 50.8924 16 89 16H705C743.108 16 774 46.8923 774 85V601C774 639.108 743.108 670 705 670H89C50.8924 670 20 639.108 20 601V85ZM135 93.5C135 114.211 118.211 131 97.5 131C76.7893 131 60 114.211 60 93.5C60 72.7893 76.7893 56 97.5 56C118.211 56 135 72.7893 135 93.5ZM197.5 131C218.211 131 235 114.211 235 93.5C235 72.7893 218.211 56 197.5 56C176.789 56 160 72.7893 160 93.5C160 114.211 176.789 131 197.5 131ZM335 93.5C335 114.211 318.211 131 297.5 131C276.789 131 260 114.211 260 93.5C260 72.7893 276.789 56 297.5 56C318.211 56 335 72.7893 335 93.5ZM396.5 131C417.211 131 434 114.211 434 93.5C434 72.7893 417.211 56 396.5 56C375.789 56 359 72.7893 359 93.5C359 114.211 375.789 131 396.5 131ZM534 93.5C534 114.211 517.211 131 496.5 131C475.789 131 459 114.211 459 93.5C459 72.7893 475.789 56 496.5 56C517.211 56 534 72.7893 534 93.5ZM596.5 131C617.211 131 634 114.211 634 93.5C634 72.7893 617.211 56 596.5 56C575.789 56 559 72.7893 559 93.5C559 114.211 575.789 131 596.5 131ZM734 93.5C734 114.211 717.211 131 696.5 131C675.789 131 659 114.211 659 93.5C659 72.7893 675.789 56 696.5 56C717.211 56 734 72.7893 734 93.5ZM97.5 231C118.211 231 135 214.211 135 193.5C135 172.789 118.211 156 97.5 156C76.7893 156 60 172.789 60 193.5C60 214.211 76.7893 231 97.5 231ZM235 193.5C235 214.211 218.211 231 197.5 231C176.789 231 160 214.211 160 193.5C160 172.789 176.789 156 197.5 156C218.211 156 235 172.789 235 193.5ZM297.5 231C318.211 231 335 214.211 335 193.5C335 172.789 318.211 156 297.5 156C276.789 156 260 172.789 260 193.5C260 214.211 276.789 231 297.5 231ZM434 193.5C434 214.211 417.211 231 396.5 231C375.789 231 359 214.211 359 193.5C359 172.789 375.789 156 396.5 156C417.211 156 434 172.789 434 193.5ZM496.5 231C517.211 231 534 214.211 534 193.5C534 172.789 517.211 156 496.5 156C475.789 156 459 172.789 459 193.5C459 214.211 475.789 231 496.5 231ZM634 193.5C634 214.211 617.211 231 596.5 231C575.789 231 559 214.211 559 193.5C559 172.789 575.789 156 596.5 156C617.211 156 634 172.789 634 193.5ZM696.5 231C717.211 231 734 214.211 734 193.5C734 172.789 717.211 156 696.5 156C675.789 156 659 172.789 659 193.5C659 214.211 675.789 231 696.5 231ZM135 293.5C135 314.211 118.211 331 97.5 331C76.7893 331 60 314.211 60 293.5C60 272.789 76.7893 256 97.5 256C118.211 256 135 272.789 135 293.5ZM197.5 331C218.211 331 235 314.211 235 293.5C235 272.789 218.211 256 197.5 256C176.789 256 160 272.789 160 293.5C160 314.211 176.789 331 197.5 331ZM335 293.5C335 314.211 318.211 331 297.5 331C276.789 331 260 314.211 260 293.5C260 272.789 276.789 256 297.5 256C318.211 256 335 272.789 335 293.5ZM396.5 331C417.211 331 434 314.211 434 293.5C434 272.789 417.211 256 396.5 256C375.789 256 359 272.789 359 293.5C359 314.211 375.789 331 396.5 331ZM534 293.5C534 314.211 517.211 331 496.5 331C475.789 331 459 314.211 459 293.5C459 272.789 475.789 256 496.5 256C517.211 256 534 272.789 534 293.5ZM596.5 331C617.211 331 634 314.211 634 293.5C634 272.789 617.211 256 596.5 256C575.789 256 559 272.789 559 293.5C559 314.211 575.789 331 596.5 331ZM734 293.5C734 314.211 717.211 331 696.5 331C675.789 331 659 314.211 659 293.5C659 272.789 675.789 256 696.5 256C717.211 256 734 272.789 734 293.5ZM97.5 430C118.211 430 135 413.211 135 392.5C135 371.789 118.211 355 97.5 355C76.7893 355 60 371.789 60 392.5C60 413.211 76.7893 430 97.5 430ZM235 392.5C235 413.211 218.211 430 197.5 430C176.789 430 160 413.211 160 392.5C160 371.789 176.789 355 197.5 355C218.211 355 235 371.789 235 392.5ZM297.5 430C318.211 430 335 413.211 335 392.5C335 371.789 318.211 355 297.5 355C276.789 355 260 371.789 260 392.5C260 413.211 276.789 430 297.5 430ZM434 392.5C434 413.211 417.211 430 396.5 430C375.789 430 359 413.211 359 392.5C359 371.789 375.789 355 396.5 355C417.211 355 434 371.789 434 392.5ZM496.5 430C517.211 430 534 413.211 534 392.5C534 371.789 517.211 355 496.5 355C475.789 355 459 371.789 459 392.5C459 413.211 475.789 430 496.5 430ZM634 392.5C634 413.211 617.211 430 596.5 430C575.789 430 559 413.211 559 392.5C559 371.789 575.789 355 596.5 355C617.211 355 634 371.789 634 392.5ZM696.5 430C717.211 430 734 413.211 734 392.5C734 371.789 717.211 355 696.5 355C675.789 355 659 371.789 659 392.5C659 413.211 675.789 430 696.5 430ZM135 492.5C135 513.211 118.211 530 97.5 530C76.7893 530 60 513.211 60 492.5C60 471.789 76.7893 455 97.5 455C118.211 455 135 471.789 135 492.5ZM197.5 530C218.211 530 235 513.211 235 492.5C235 471.789 218.211 455 197.5 455C176.789 455 160 471.789 160 492.5C160 513.211 176.789 530 197.5 530ZM335 492.5C335 513.211 318.211 530 297.5 530C276.789 530 260 513.211 260 492.5C260 471.789 276.789 455 297.5 455C318.211 455 335 471.789 335 492.5ZM396.5 530C417.211 530 434 513.211 434 492.5C434 471.789 417.211 455 396.5 455C375.789 455 359 471.789 359 492.5C359 513.211 375.789 530 396.5 530ZM534 492.5C534 513.211 517.211 530 496.5 530C475.789 530 459 513.211 459 492.5C459 471.789 475.789 455 496.5 455C517.211 455 534 471.789 534 492.5ZM596.5 530C617.211 530 634 513.211 634 492.5C634 471.789 617.211 455 596.5 455C575.789 455 559 471.789 559 492.5C559 513.211 575.789 530 596.5 530ZM734 492.5C734 513.211 717.211 530 696.5 530C675.789 530 659 513.211 659 492.5C659 471.789 675.789 455 696.5 455C717.211 455 734 471.789 734 492.5ZM97.5 630C118.211 630 135 613.211 135 592.5C135 571.789 118.211 555 97.5 555C76.7893 555 60 571.789 60 592.5C60 613.211 76.7893 630 97.5 630ZM235 592.5C235 613.211 218.211 630 197.5 630C176.789 630 160 613.211 160 592.5C160 571.789 176.789 555 197.5 555C218.211 555 235 571.789 235 592.5ZM297.5 630C318.211 630 335 613.211 335 592.5C335 571.789 318.211 555 297.5 555C276.789 555 260 571.789 260 592.5C260 613.211 276.789 630 297.5 630ZM434 592.5C434 613.211 417.211 630 396.5 630C375.789 630 359 613.211 359 592.5C359 571.789 375.789 555 396.5 555C417.211 555 434 571.789 434 592.5ZM496.5 630C517.211 630 534 613.211 534 592.5C534 571.789 517.211 555 496.5 555C475.789 555 459 571.789 459 592.5C459 613.211 475.789 630 496.5 630ZM634 592.5C634 613.211 617.211 630 596.5 630C575.789 630 559 613.211 559 592.5C559 571.789 575.789 555 596.5 555C617.211 555 634 571.789 634 592.5ZM696.5 630C717.211 630 734 613.211 734 592.5C734 571.789 717.211 555 696.5 555C675.789 555 659 571.789 659 592.5C659 613.211 675.789 630 696.5 630Z" fill="url(#paint0_linear)"/>
</g>
<defs>
<filter id="filter0_dii" x="0" y="0" width="794" height="694" filterUnits="userSpaceOnUse" color-interpolation-filters="sRGB">
<feFlood flood-opacity="0" result="BackgroundImageFix"/>
<feColorMatrix in="SourceAlpha" type="matrix" values="0 0 0 0 0 0 0 0 0 0 0 0 0 0 0 0 0 0 127 0"/>
<feOffset dy="4"/>
<feGaussianBlur stdDeviation="10"/>
<feColorMatrix type="matrix" values="0 0 0 0 0.404167 0 0 0 0 0.114514 0 0 0 0 0.392581 0 0 0 0.73 0"/>
<feBlend mode="normal" in2="BackgroundImageFix" result="effect1_dropShadow"/>
<feBlend mode="normal" in="SourceGraphic" in2="effect1_dropShadow" result="shape"/>
<feColorMatrix in="SourceAlpha" type="matrix" values="0 0 0 0 0 0 0 0 0 0 0 0 0 0 0 0 0 0 127 0" result="hardAlpha"/>
<feOffset dy="4"/>
<feGaussianBlur stdDeviation="3"/>
<feComposite in2="hardAlpha" operator="arithmetic" k2="-1" k3="1"/>
<feColorMatrix type="matrix" values="0 0 0 0 0.416667 0 0 0 0 0.58 0 0 0 0 1 0 0 0 1 0"/>
<feBlend mode="normal" in2="shape" result="effect2_innerShadow"/>
<feColorMatrix in="SourceAlpha" type="matrix" values="0 0 0 0 0 0 0 0 0 0 0 0 0 0 0 0 0 0 127 0" result="hardAlpha"/>
<feOffset dy="4"/>
<feGaussianBlur stdDeviation="2"/>
<feComposite in2="hardAlpha" operator="arithmetic" k2="-1" k3="1"/>
<feColorMatrix type="matrix" values="0 0 0 0 0 0 0 0 0 0 0 0 0 0 0 0 0 0 0.5 0"/>
<feBlend mode="normal" in2="effect2_innerShadow" result="effect3_innerShadow"/>
</filter>
<linearGradient id="paint0_linear" x1="397" y1="16" x2="397" y2="670" gradientUnits="userSpaceOnUse">
<stop stop-color="#4859B3"/>
<stop offset="1" stop-color="#3E3C77"/>
</linearGradient>
</defs>
</svg>
