<?xml version="1.0" standalone="no"?>
<!DOCTYPE svg PUBLIC "-//W3C//DTD SVG 20010904//EN"
 "http://www.w3.org/TR/2001/REC-SVG-20010904/DTD/svg10.dtd">
<svg version="1.0" xmlns="http://www.w3.org/2000/svg"
 width="700.000000pt" height="700.000000pt" viewBox="0 0 700.000000 700.000000"
 preserveAspectRatio="xMidYMid meet">
<metadata>
Created by potrace 1.11, written by Peter Selinger 2001-2013
</metadata>
<g transform="translate(0.000000,700.000000) scale(0.100000,-0.100000)"
fill="#000000" stroke="none">
<path d="M4882 6509 c-235 -32 -476 -130 -660 -269 -105 -79 -256 -238 -325
-342 -100 -150 -173 -324 -213 -509 -27 -120 -27 -428 0 -549 21 -98 77 -262
113 -334 205 -409 573 -689 1018 -772 129 -24 361 -25 491 -1 383 70 715 291
931 619 227 344 288 789 162 1185 -154 487 -553 847 -1057 953 -114 24 -350
34 -460 19z m344 -719 c250 -63 443 -253 510 -500 21 -79 24 -252 5 -330 -19
-79 -93 -227 -143 -286 -134 -157 -303 -241 -503 -251 -131 -6 -222 13 -345
73 -78 39 -109 62 -175 128 -142 144 -196 266 -203 461 -7 206 48 359 180 500
177 189 431 267 674 205z"/>
<path d="M1705 6435 c-308 -49 -568 -181 -784 -399 -199 -200 -326 -435 -387
-716 -26 -120 -27 -419 -1 -540 116 -543 509 -958 1033 -1091 268 -67 550 -56
802 33 487 171 838 586 928 1098 19 110 19 333 0 452 -49 299 -185 560 -405
778 -205 202 -485 341 -776 385 -119 18 -299 18 -410 0z"/>
<path d="M1732 3289 c-235 -32 -476 -130 -660 -269 -105 -79 -256 -238 -325
-342 -100 -150 -173 -324 -213 -509 -27 -120 -27 -428 0 -549 21 -98 77 -262
113 -334 205 -409 573 -689 1018 -772 129 -24 361 -25 491 -1 383 70 715 291
931 619 227 344 288 789 162 1185 -154 487 -553 847 -1057 953 -114 24 -350
34 -460 19z m344 -719 c250 -63 443 -253 510 -500 21 -79 24 -252 5 -330 -19
-79 -93 -227 -143 -286 -134 -157 -303 -241 -503 -251 -131 -6 -222 13 -345
73 -78 39 -109 62 -175 128 -142 144 -196 266 -203 461 -7 206 48 359 180 500
177 189 431 267 674 205z"/>
<path d="M4935 3290 c-591 -56 -1086 -477 -1230 -1047 -191 -756 266 -1517
1026 -1709 143 -36 407 -45 561 -19 376 63 718 283 930 599 80 121 122 206
168 345 56 169 74 300 67 491 -10 275 -81 496 -233 726 -71 108 -258 298 -364
371 -270 184 -611 273 -925 243z"/>
</g>
</svg>
